<?xml version="1.0" standalone="no"?>
<!DOCTYPE svg PUBLIC "-//W3C//DTD SVG 20010904//EN"
 "http://www.w3.org/TR/2001/REC-SVG-20010904/DTD/svg10.dtd">
<svg version="1.0" xmlns="http://www.w3.org/2000/svg"
 width="2540.000000pt" height="2540.000000pt" viewBox="0 0 2540.000000 2540.000000"
 preserveAspectRatio="xMidYMid meet">
<metadata>
Created by potrace 1.14, written by Peter Selinger 2001-2017
</metadata>
<g transform="translate(0.000000,2540.000000) scale(0.100000,-0.100000)"
fill="#000000" stroke="none">
<path d="M12017 22273 c-1 -1 -117 -4 -257 -7 -140 -4 -300 -8 -355 -11 -247
-10 -503 -23 -610 -30 -134 -9 -250 -16 -300 -20 -27 -2 -90 -7 -140 -10 -49
-3 -108 -8 -130 -10 -22 -3 -76 -7 -120 -10 -44 -3 -98 -7 -120 -10 -22 -2
-71 -7 -110 -10 -38 -3 -81 -8 -95 -10 -14 -3 -59 -7 -100 -11 -115 -9 -211
-18 -295 -29 -16 -2 -57 -6 -90 -10 -33 -3 -76 -8 -95 -11 -19 -3 -57 -7 -85
-9 -27 -3 -67 -7 -87 -10 -21 -3 -56 -7 -78 -10 -22 -3 -58 -7 -80 -10 -22 -3
-57 -7 -77 -10 -21 -2 -76 -9 -123 -16 -47 -6 -98 -12 -115 -14 -16 -2 -43 -6
-60 -9 -16 -3 -50 -7 -75 -11 -25 -3 -56 -8 -70 -10 -14 -2 -45 -7 -70 -10
-25 -2 -54 -6 -65 -9 -11 -2 -42 -7 -70 -10 -27 -4 -79 -11 -115 -17 -36 -5
-76 -12 -90 -14 -59 -8 -116 -18 -135 -21 -10 -2 -35 -6 -55 -9 -20 -3 -45 -7
-55 -9 -11 -2 -42 -7 -70 -11 -27 -5 -52 -9 -55 -10 -3 -1 -30 -5 -60 -10 -30
-5 -57 -9 -60 -10 -3 0 -27 -4 -53 -9 -27 -4 -58 -9 -70 -12 -39 -7 -202 -36
-222 -38 -120 -17 -895 -173 -1005 -202 -365 -98 -730 -321 -980 -600 -87 -96
-106 -120 -155 -189 -110 -153 -176 -267 -243 -421 -64 -145 -140 -392 -157
-509 -3 -23 -7 -50 -9 -60 -6 -32 -15 -105 -21 -180 -3 -38 -8 -83 -10 -100
-2 -16 -7 -66 -10 -110 -4 -44 -8 -91 -10 -105 -2 -14 -7 -63 -10 -110 -4 -47
-8 -101 -10 -120 -8 -73 -16 -167 -20 -225 -2 -33 -7 -85 -10 -115 -3 -30 -7
-84 -10 -120 -3 -36 -7 -85 -10 -110 -2 -25 -7 -79 -10 -120 -3 -41 -8 -95
-10 -120 -2 -25 -7 -81 -10 -125 -3 -44 -8 -100 -10 -125 -2 -25 -6 -81 -10
-125 -3 -44 -8 -102 -10 -130 -2 -27 -7 -84 -10 -125 -3 -41 -8 -100 -10 -130
-3 -30 -7 -91 -10 -135 -7 -98 -14 -201 -20 -280 -3 -33 -7 -89 -10 -125 -2
-36 -7 -105 -10 -155 -4 -49 -8 -112 -10 -140 -2 -27 -6 -95 -10 -150 -3 -55
-8 -125 -10 -155 -2 -30 -7 -104 -10 -165 -4 -60 -8 -132 -10 -160 -2 -27 -7
-98 -10 -156 -3 -59 -7 -137 -9 -175 -3 -38 -7 -121 -11 -184 -3 -63 -8 -153
-10 -199 -3 -46 -7 -136 -10 -200 -3 -64 -7 -161 -10 -216 -9 -203 -17 -403
-20 -520 -2 -66 -7 -232 -11 -370 -8 -262 -10 -1232 -4 -1370 2 -44 1 -85 -3
-91 -3 -6 -3 -14 1 -18 4 -4 8 -29 8 -54 3 -93 15 -328 19 -367 3 -22 7 -71
10 -110 8 -106 15 -187 20 -215 2 -14 7 -54 11 -90 3 -36 8 -78 10 -95 3 -16
7 -43 9 -60 2 -16 6 -48 10 -70 3 -22 11 -69 16 -105 6 -36 12 -76 14 -90 7
-50 46 -266 56 -310 5 -25 11 -54 13 -65 3 -11 9 -41 15 -68 17 -72 25 -119
25 -149 1 -14 4 -25 7 -23 3 2 16 -40 28 -93 38 -161 84 -331 143 -527 36
-121 155 -478 173 -520 7 -16 20 -52 30 -80 9 -27 23 -63 31 -80 7 -16 32 -77
54 -135 23 -58 47 -118 55 -135 21 -47 96 -217 108 -245 5 -14 10 -28 9 -33
-1 -4 2 -7 7 -7 5 0 15 -17 22 -37 7 -21 18 -48 26 -60 8 -12 11 -28 7 -35 -4
-7 -3 -10 1 -5 5 4 43 -61 85 -145 78 -156 103 -203 207 -388 85 -150 95 -168
152 -258 28 -45 51 -84 51 -87 0 -3 16 -27 35 -54 19 -26 35 -51 35 -54 0 -3
30 -48 66 -101 36 -53 62 -101 59 -106 -4 -6 -2 -9 3 -8 8 3 69 -79 230 -307
19 -27 46 -61 59 -75 12 -13 23 -28 23 -31 0 -3 9 -17 20 -30 11 -13 23 -28
27 -34 36 -46 89 -111 93 -115 3 -3 27 -33 53 -67 26 -34 53 -68 60 -75 12
-13 115 -134 130 -153 4 -5 24 -28 44 -50 19 -22 61 -69 92 -104 187 -212 565
-588 791 -789 25 -22 63 -56 85 -76 22 -19 44 -36 48 -36 5 0 5 -4 2 -10 -3
-5 -1 -10 5 -10 18 0 180 -143 173 -153 -3 -6 -1 -7 5 -3 6 3 50 -26 99 -67
48 -40 126 -102 173 -137 102 -78 118 -91 135 -107 8 -7 16 -13 19 -13 4 0 30
-19 60 -43 29 -23 77 -58 105 -77 28 -19 61 -43 73 -53 13 -10 35 -26 51 -35
15 -9 27 -20 27 -24 0 -4 6 -8 13 -8 7 0 27 -13 45 -30 18 -16 34 -29 35 -28
5 4 67 -37 67 -44 0 -4 5 -8 10 -8 6 0 36 -17 68 -39 31 -21 98 -64 147 -96
50 -31 113 -72 140 -90 124 -82 600 -356 785 -453 129 -67 468 -237 525 -262
28 -12 101 -47 163 -76 62 -30 115 -54 117 -54 3 0 40 -16 82 -36 43 -19 116
-51 163 -70 47 -19 103 -43 126 -54 92 -42 715 -281 769 -294 6 -2 17 -6 25
-9 41 -18 684 -227 697 -227 8 0 60 15 116 34 56 19 219 73 362 120 345 113
468 157 790 285 99 40 204 83 233 96 29 14 55 25 58 25 3 0 29 11 57 24 29 13
72 33 97 44 92 41 139 62 305 141 94 44 177 85 185 90 8 5 76 40 150 77 166
84 511 276 690 383 117 71 255 157 335 210 55 36 104 68 109 70 48 20 792 555
836 601 3 3 50 41 105 85 55 44 102 82 105 85 3 3 30 25 60 50 223 183 468
407 740 680 283 283 394 403 650 704 49 58 299 371 320 402 8 12 62 86 120
165 58 79 121 167 140 195 97 144 191 286 230 349 24 39 58 93 75 120 18 28
68 111 110 185 297 516 476 894 720 1525 10 26 1 -1 105 305 123 366 262 881
314 1170 3 14 10 50 16 80 6 30 13 64 14 75 2 11 11 63 20 115 19 105 20 114
36 215 17 112 18 118 25 170 3 28 8 61 10 75 2 14 6 52 9 85 7 71 15 153 21
213 3 23 7 88 11 145 3 56 7 125 9 152 24 325 24 1320 0 1960 -9 243 -16 415
-21 505 -2 52 -6 138 -9 190 -2 52 -7 142 -11 199 -3 57 -7 133 -9 170 -9 192
-16 310 -20 346 -3 22 -7 90 -10 150 -3 61 -8 135 -10 165 -4 52 -9 120 -20
270 -3 36 -7 106 -10 155 -3 50 -8 117 -10 150 -3 33 -8 89 -10 125 -3 36 -8
93 -10 128 -3 34 -8 90 -11 125 -3 34 -7 87 -9 117 -4 71 -15 204 -20 255 -3
22 -7 83 -10 135 -3 52 -8 111 -10 130 -3 19 -7 69 -10 110 -3 41 -8 100 -10
130 -2 30 -7 75 -9 100 -3 25 -8 79 -11 120 -3 41 -8 95 -10 120 -2 25 -7 77
-10 115 -3 39 -8 88 -10 110 -3 22 -7 72 -10 110 -3 39 -8 88 -10 110 -4 38
-8 89 -20 240 -3 39 -8 84 -10 100 -2 17 -7 66 -10 110 -3 44 -8 91 -10 105
-2 14 -6 59 -10 100 -3 41 -8 95 -10 120 -3 25 -7 70 -10 100 -3 30 -8 71 -10
90 -3 19 -7 49 -9 65 -4 28 -10 59 -21 114 -43 215 -152 500 -261 684 -216
363 -524 655 -882 836 -118 60 -346 142 -458 166 -79 16 -434 88 -454 91 -14
3 -47 9 -75 14 -73 15 -89 18 -205 40 -90 17 -151 28 -365 65 -16 3 -52 10
-80 15 -27 5 -63 11 -80 14 -16 2 -70 11 -120 20 -49 8 -108 18 -130 21 -23 3
-52 8 -65 10 -14 3 -38 7 -55 9 -16 3 -43 7 -60 10 -16 3 -50 8 -75 11 -25 4
-54 8 -65 10 -69 10 -256 37 -285 41 -19 2 -42 6 -50 9 -8 2 -37 7 -65 9 -27
3 -68 8 -90 11 -131 20 -166 25 -220 31 -33 3 -67 8 -75 9 -9 2 -43 6 -75 10
-33 4 -71 8 -85 10 -14 2 -52 7 -85 10 -70 7 -120 13 -155 20 -14 2 -56 7 -95
10 -38 3 -81 8 -95 10 -14 3 -54 7 -90 10 -36 3 -81 7 -100 9 -19 3 -64 7
-100 11 -36 3 -83 8 -105 10 -65 7 -316 29 -457 40 -35 3 -94 8 -133 11 -38 3
-97 7 -130 9 -33 2 -94 6 -135 9 -72 5 -175 11 -345 21 -44 3 -141 7 -215 10
-74 3 -173 8 -220 10 -271 13 -1453 28 -1463 18z"/>
</g>
</svg>
